# xmcd CD database file
#
# Track frame offsets:
#	150
#	13100
#	23050
#	34654
#	46603
#	54429
#	65592
#	78778
#	90380
#	102661
#	113976
#	127912
#
# Disc length: 1958 seconds
#
# Revision: 1
# Processed by: cddbd v1.5.2PL0 Copyright (c) Steve Scherf et al.
# Submitted via: CDex 1.70beta2
#
DISCID=8b07a40c
DTITLE=TEDDY WILSON - 永遠のジャズピアニスト５
DYEAR=2003
DGENRE=Jazz
TTITLE0=More Than You Now
TTITLE1=Goin'Home Blues
TTITLE2=Out of Nowhere
TTITLE3=Lady Be Good
TTITLE4=Fine And Dandy
TTITLE5=Night And Day
TTITLE6=You'll Be Sorry
TTITLE7=Love Is The Sweetest Thing
TTITLE8=China Boy
TTITLE9=Liza
TTITLE10=Just You,Just Me
TTITLE11='S Wounderful
EXTD=YEAR: 2003
EXTT0=
EXTT1=
EXTT2=
EXTT3=
EXTT4=
EXTT5=
EXTT6=
EXTT7=
EXTT8=
EXTT9=
EXTT10=
EXTT11=
PLAYORDER=
